<?xml version="1.0" encoding="UTF-8"?>
<svg id="Ebene_1" xmlns="http://www.w3.org/2000/svg" version="1.1" viewBox="0 0 32 32">
  <!-- Generator: Adobe Illustrator 29.8.4, SVG Export Plug-In . SVG Version: 2.1.1 Build 6)  -->
  <defs>
    <style>
      .st0 {
        fill: #3a424b;
      }
    </style>
  </defs>
  <path class="st0" d="M16,0C24.84,0,32,7.16,32,16s-7.16,16-16,16S0,24.84,0,16,7.16,0,16,0ZM16,1.5C7.99,1.5,1.5,7.99,1.5,16s6.49,14.5,14.5,14.5,14.5-6.49,14.5-14.5S24.01,1.5,16,1.5ZM14.35,17.7l4.32-2.24-4.32-2.26v4.5ZM24,16.23c0,1.3-.16,2.59-.16,2.59,0,0-.16,1.1-.64,1.59-.61.64-1.29.64-1.6.68-2.24.16-5.6.17-5.6.17,0,0-4.16-.04-5.44-.16-.36-.07-1.16-.05-1.76-.68-.48-.49-.64-1.59-.64-1.59,0,0-.16-1.3-.16-2.59v-1.21c0-1.3.16-2.59.16-2.59,0,0,.16-1.1.64-1.59.61-.64,1.29-.64,1.6-.68,2.24-.16,5.6-.16,5.6-.16h0s3.36,0,5.6.16c.31.04,1,.04,1.6.68.48.49.64,1.59.64,1.59,0,0,.16,1.29.16,2.59v1.21h0Z"/>
</svg>